<svg width="16" height="16" viewBox="0 0 16 16" fill="none" xmlns="http://www.w3.org/2000/svg">
<g clip-path="url(#clip0_20_23)">
<path d="M13.5445 2.91334C12.5245 2.44534 11.4312 2.10067 10.2879 1.90334C10.2672 1.89934 10.2465 1.90934 10.2352 1.92801C10.0945 2.17801 9.93854 2.50467 9.82987 2.76067C8.59987 2.57667 7.37654 2.57667 6.17187 2.76067C6.06321 2.49867 5.90121 2.17801 5.76054 1.92801C5.74921 1.90934 5.72854 1.90001 5.70787 1.90334C4.56521 2.10001 3.47187 2.44467 2.45121 2.91334C2.44254 2.91667 2.43454 2.92334 2.42987 2.93134C0.355875 6.03001 -0.212792 9.05267 0.0658751 12.038C0.0672084 12.0527 0.0752084 12.0667 0.0865417 12.0753C1.45521 13.0807 2.78054 13.6907 4.08187 14.0947C4.10254 14.1013 4.12454 14.0933 4.13787 14.076C4.44587 13.656 4.71987 13.2127 4.95521 12.7467C4.96921 12.7193 4.95587 12.6867 4.92721 12.676C4.49187 12.5107 4.07787 12.3093 3.67921 12.0813C3.64787 12.0627 3.64521 12.018 3.67387 11.996C3.75787 11.9333 3.84187 11.868 3.92187 11.802C3.93654 11.79 3.95654 11.7873 3.97387 11.7953C6.59254 12.9907 9.42721 12.9907 12.0145 11.7953C12.0319 11.7873 12.0519 11.7893 12.0672 11.802C12.1472 11.868 12.2312 11.934 12.3159 11.9967C12.3452 12.018 12.3432 12.0633 12.3112 12.082C11.9125 12.3147 11.4985 12.512 11.0625 12.676C11.0339 12.6867 11.0219 12.72 11.0352 12.7473C11.2752 13.2127 11.5499 13.656 11.8519 14.076C11.8645 14.094 11.8872 14.1013 11.9079 14.0953C13.2152 13.6907 14.5412 13.0807 15.9092 12.076C15.9212 12.0673 15.9285 12.054 15.9299 12.0393C16.2632 8.58801 15.3712 5.59001 13.5645 2.93267C13.5612 2.92334 13.5532 2.91667 13.5445 2.91334ZM5.34654 10.2207C4.55787 10.2207 3.90854 9.49667 3.90854 8.60801C3.90854 7.71934 4.54521 6.99534 5.34654 6.99534C6.15387 6.99534 6.79721 7.72534 6.78454 8.60801C6.78454 9.49734 6.14721 10.2207 5.34654 10.2207ZM10.6632 10.2207C9.87521 10.2207 9.22521 9.49667 9.22521 8.60801C9.22521 7.71934 9.86187 6.99534 10.6632 6.99534C11.4705 6.99534 12.1139 7.72534 12.1012 8.60801C12.1012 9.49734 11.4705 10.2207 10.6632 10.2207Z" fill="black"/>
</g>
<defs>
<clipPath id="clip0_20_23">
<rect width="16" height="16" fill="white"/>
</clipPath>
</defs>
</svg>
