<svg width="16" height="16" viewBox="0 0 16 16" fill="none" xmlns="http://www.w3.org/2000/svg">
<g clip-path="url(#clip0_20_29)">
<path fill-rule="evenodd" clip-rule="evenodd" d="M7.99999 0.197327C3.58199 0.197327 -7.62939e-06 3.77866 -7.62939e-06 8.19733C-7.62939e-06 11.732 2.29199 14.7307 5.47066 15.7887C5.87066 15.8627 6.01733 15.6153 6.01733 15.404C6.01733 15.2133 6.00999 14.5833 6.00666 13.9147C3.78133 14.3987 3.31133 12.9707 3.31133 12.9707C2.94733 12.046 2.42333 11.8 2.42333 11.8C1.69733 11.3033 2.47799 11.314 2.47799 11.314C3.28133 11.3707 3.70399 12.1387 3.70399 12.1387C4.41733 13.3613 5.57533 13.008 6.03199 12.8033C6.10399 12.286 6.31133 11.9333 6.53999 11.7333C4.76333 11.5313 2.89533 10.8453 2.89533 7.77999C2.89533 6.90666 3.20799 6.19266 3.71999 5.63266C3.63666 5.43066 3.36266 4.61733 3.79733 3.51533C3.79733 3.51533 4.46933 3.30066 5.99799 4.33533C6.63599 4.15799 7.31999 4.06933 7.99999 4.06599C8.67999 4.06933 9.36466 4.15799 10.004 4.33533C11.5307 3.29999 12.202 3.51533 12.202 3.51533C12.6373 4.61733 12.3633 5.43066 12.2807 5.63266C12.7933 6.19266 13.104 6.90666 13.104 7.77999C13.104 10.8527 11.2327 11.5293 9.45133 11.7273C9.73799 11.9753 9.99399 12.4627 9.99399 13.2087C9.99399 14.2793 9.98466 15.1407 9.98466 15.404C9.98466 15.6167 10.1287 15.8667 10.534 15.788C13.7113 14.7287 16.0007 11.7313 16.0007 8.19799C16 3.77933 12.418 0.197327 7.99999 0.197327Z" fill="black"/>
<path d="M3.03 11.684C3.01267 11.724 2.95 11.736 2.89267 11.7087C2.83467 11.6827 2.802 11.628 2.82067 11.5887C2.838 11.548 2.90067 11.5367 2.95867 11.564C3.01667 11.5893 3.05 11.644 3.03 11.684Z" fill="black"/>
<path d="M3.354 12.0453C3.316 12.0807 3.24134 12.064 3.19067 12.0087C3.138 11.9527 3.12867 11.878 3.16734 11.8427C3.20667 11.8073 3.27867 11.824 3.33134 11.88C3.384 11.9353 3.394 12.0093 3.354 12.0453Z" fill="black"/>
<path d="M3.66934 12.506C3.62 12.54 3.54 12.508 3.49067 12.4373C3.44134 12.366 3.44134 12.2807 3.492 12.2467C3.54134 12.2127 3.62067 12.2433 3.67067 12.314C3.71934 12.386 3.71934 12.4713 3.66934 12.506Z" fill="black"/>
<path d="M4.10133 12.9513C4.05733 13 3.964 12.9867 3.896 12.9207C3.826 12.856 3.80667 12.7647 3.85067 12.716C3.89533 12.6673 3.98933 12.6813 4.058 12.7467C4.12733 12.8113 4.148 12.9033 4.10133 12.9513Z" fill="black"/>
<path d="M4.698 13.2093C4.67866 13.272 4.58866 13.3007 4.498 13.274C4.40733 13.2467 4.348 13.1733 4.36666 13.11C4.38533 13.0467 4.476 13.0173 4.56733 13.046C4.65733 13.0727 4.71666 13.146 4.698 13.2093Z" fill="black"/>
<path d="M5.35267 13.2573C5.35467 13.3233 5.278 13.378 5.18267 13.3793C5.08733 13.3813 5.00933 13.328 5.00867 13.2633C5.00867 13.1966 5.084 13.1426 5.17933 13.1406C5.27467 13.1386 5.35267 13.192 5.35267 13.2573Z" fill="black"/>
<path d="M5.962 13.154C5.97333 13.218 5.90733 13.2847 5.81266 13.302C5.72 13.3193 5.634 13.2793 5.622 13.2153C5.61066 13.1493 5.678 13.0833 5.77066 13.066C5.86466 13.0493 5.95 13.088 5.962 13.154Z" fill="black"/>
</g>
<defs>
<clipPath id="clip0_20_29">
<rect width="16" height="16" fill="white"/>
</clipPath>
</defs>
</svg>
