<svg width="129" height="48" viewBox="0 0 129 48" fill="none" xmlns="http://www.w3.org/2000/svg">
<g clip-path="url(#clip0_27_85)">
<path d="M66.6002 15.8987L72.7375 15.5012C72.8775 16.5066 73.1342 17.2547 73.5543 17.7925C74.231 18.6342 75.1644 19.055 76.4012 19.055C77.3113 19.055 78.0347 18.8446 78.5248 18.4004C78.9915 18.0497 79.2715 17.4885 79.2715 16.904C79.2715 16.3429 79.0148 15.8051 78.5715 15.4544C78.1047 15.0336 77.008 14.6127 75.2811 14.2387C72.4575 13.6074 70.4273 12.7657 69.2372 11.6902C68.047 10.6848 67.3703 9.21187 67.417 7.64538C67.417 6.56988 67.7437 5.49438 68.3504 4.60593C69.0505 3.60057 70.0072 2.80563 71.1507 2.36141C72.3875 1.82366 74.1143 1.54309 76.2845 1.54309C78.9448 1.54309 80.975 2.03408 82.3752 3.03944C83.7753 4.02142 84.6154 5.61128 84.8721 7.78566L78.8048 8.13637C78.6415 7.20115 78.3148 6.52312 77.778 6.07889C77.2413 5.63466 76.5412 5.42424 75.6311 5.42424C74.8844 5.42424 74.3243 5.5879 73.951 5.89185C73.6009 6.17241 73.3676 6.59326 73.3909 7.06087C73.3909 7.41158 73.5776 7.7389 73.8576 7.94933C74.161 8.22989 74.8844 8.48708 76.0279 8.72088C78.8515 9.32877 80.8584 9.93666 82.0951 10.5679C83.3319 11.1992 84.2187 11.9708 84.7554 12.8826C85.3155 13.8178 85.5955 14.8933 85.5722 15.9922C85.5722 17.3015 85.1988 18.6108 84.4521 19.7097C83.682 20.8553 82.6085 21.7438 81.3484 22.2815C80.0183 22.866 78.3381 23.17 76.3312 23.17C72.7842 23.17 70.3339 22.4919 68.9571 21.1125C67.5803 19.7331 66.7636 18.0029 66.6002 15.8987ZM1.47015 22.8193V1.91718H12.2279C14.2115 1.91718 15.7516 2.08084 16.8017 2.43155C17.8285 2.75887 18.7386 3.4369 19.3453 4.34874C20.0221 5.3541 20.3488 6.52312 20.3254 7.7389C20.3954 9.79638 19.3453 11.7603 17.5485 12.7891C16.8484 13.1865 16.0783 13.4671 15.2849 13.6074C15.8683 13.7711 16.4517 14.0516 16.9651 14.3789C17.3618 14.7063 17.6885 15.0804 17.9919 15.4778C18.3419 15.8753 18.6453 16.3195 18.902 16.7871L22.0289 22.8427H14.7015L11.2478 16.413C10.8045 15.5947 10.4311 15.057 10.081 14.7998C9.61433 14.4725 9.05427 14.3088 8.49421 14.3088H7.93415V22.7959H1.47015V22.8193ZM7.93415 10.3809H10.6644C11.2478 10.3341 11.8079 10.2406 12.3679 10.1003C12.788 10.0302 13.1614 9.79638 13.4181 9.44567C14.0481 8.60398 13.9548 7.41158 13.1847 6.68678C12.7647 6.33608 11.9479 6.14903 10.7811 6.14903H7.93415V10.3809ZM0 40.7287L6.1373 40.3312C6.27732 41.3366 6.53401 42.0847 6.95405 42.6225C7.60745 43.4642 8.56422 43.9084 9.80101 43.9084C10.7111 43.9084 11.4345 43.698 11.9246 43.2538C12.3913 42.8797 12.6713 42.3419 12.6713 41.7574C12.6713 41.1963 12.4146 40.6585 11.9712 40.3078C11.5045 39.887 10.4077 39.4661 8.65756 39.092C5.83394 38.4608 3.80373 37.6191 2.6136 36.5436C1.42348 35.5382 0.746744 34.0653 0.793415 32.4988C0.793415 31.4233 1.12012 30.3478 1.72685 29.4593C2.42692 28.454 3.38368 27.659 4.52713 27.2148C5.76393 26.677 7.49077 26.3965 9.661 26.3965C12.3213 26.3965 14.3515 26.8875 15.7516 27.8928C17.1518 28.8982 17.9685 30.4647 18.2252 32.639L12.1579 32.9898C11.9946 32.0545 11.6679 31.3765 11.1312 30.9323C10.6178 30.4881 9.89436 30.2776 8.98426 30.301C8.23752 30.301 7.67746 30.4647 7.30409 30.792C6.93072 31.0726 6.72069 31.4934 6.74403 31.961C6.74403 32.3117 6.93072 32.639 7.21074 32.8495C7.51411 33.13 8.23752 33.3872 9.38097 33.621C12.2046 34.2289 14.2115 34.8368 15.4483 35.4681C16.6851 36.0993 17.5718 36.8709 18.1085 37.7827C18.6686 38.718 18.9486 39.7935 18.9486 40.869C18.9486 42.1783 18.5519 43.4642 17.8285 44.5631C17.0584 45.7087 15.985 46.5972 14.7249 47.1349C13.3947 47.7194 11.7145 48.0234 9.70767 48.0234C6.16064 48.0234 3.71038 47.3453 2.33357 45.9659C0.956765 44.5631 0.186686 42.8329 0 40.7287Z" fill="black"/>
<path d="M31.0366 39.0921L36.6838 40.7988C36.3804 42.225 35.7504 43.5811 34.887 44.7735C34.0935 45.8256 33.0434 46.6439 31.8533 47.1817C30.6399 47.7194 29.0997 48 27.2328 48C24.9693 48 23.1024 47.6727 21.6789 47.018C20.2321 46.3634 18.9953 45.1943 17.9452 43.5343C16.8951 41.8743 16.3817 39.7467 16.3817 37.1515C16.3817 33.6912 17.2918 31.0258 19.1353 29.1788C20.9789 27.3317 23.5691 26.3965 26.9295 26.3965C29.5664 26.3965 31.62 26.9342 33.1368 27.9864C34.6303 29.0619 35.7504 30.6985 36.4971 32.8962L30.8032 34.1588C30.6632 33.6678 30.4532 33.1768 30.1731 32.756C29.8231 32.265 29.3797 31.8909 28.843 31.6103C28.3063 31.3298 27.6996 31.2129 27.0928 31.2129C25.6227 31.2129 24.5026 31.7974 23.7325 32.9898C23.1491 33.8548 22.8457 35.2343 22.8457 37.1047C22.8457 39.4194 23.1958 41.0092 23.8958 41.8743C24.5959 42.7394 25.576 43.1602 26.8595 43.1602C28.0963 43.1602 29.0297 42.8095 29.6598 42.1315C30.2898 41.4067 30.7565 40.4014 31.0366 39.0921ZM44.2213 26.7472H50.6619V34.0653H57.7093V26.7472H64.1967V47.6493H57.7093V39.1856H50.6619V47.6493H44.2213V26.7472Z" fill="black"/>
<path d="M63.3099 37.1982C63.3099 33.7847 64.2667 31.1193 66.1569 29.2255C68.0471 27.3317 70.7074 26.3731 74.0911 26.3731C77.5681 26.3731 80.2284 27.3083 82.1185 29.1788C84.0087 31.0492 84.9422 33.6678 84.9422 37.0346C84.9422 39.4895 84.5221 41.4769 83.7054 43.0433C82.912 44.5865 81.6752 45.849 80.1583 46.6907C78.5949 47.5558 76.658 48 74.3477 48C71.9908 48 70.054 47.6259 68.5138 46.8777C66.927 46.0828 65.6202 44.8436 64.7568 43.3239C63.8 41.6873 63.3099 39.6532 63.3099 37.1982ZM69.7506 37.2216C69.7506 39.3259 70.1473 40.8456 70.9174 41.7808C71.6875 42.6926 72.7609 43.1602 74.1144 43.1602C75.4912 43.1602 76.5646 42.716 77.3347 41.8042C78.1048 40.8923 78.4782 39.2791 78.4782 36.9411C78.4782 34.9771 78.0815 33.5275 77.2881 32.6391C76.4946 31.7272 75.4212 31.283 74.0677 31.283C72.8776 31.2362 71.7341 31.7506 70.9407 32.6624C70.1473 33.5743 69.7506 35.094 69.7506 37.2216ZM91.5462 37.1982C91.5462 33.7847 92.503 31.1193 94.3932 29.2255C96.2833 27.3317 98.9436 26.3731 102.327 26.3731C105.804 26.3731 108.488 27.3083 110.355 29.1788C112.222 31.0492 113.178 33.6678 113.178 37.0346C113.178 39.4895 112.758 41.4769 111.942 43.0433C111.148 44.5865 109.911 45.849 108.395 46.6907C106.831 47.5558 104.894 48 102.584 48C100.227 48 98.2902 47.6259 96.7501 46.8777C95.1632 46.0828 93.8564 44.8436 92.993 43.3239C92.0362 41.6873 91.5462 39.6532 91.5462 37.1982ZM97.9869 37.2216C97.9869 39.3259 98.3836 40.8456 99.1536 41.7808C99.9237 42.6926 100.997 43.1602 102.351 43.1602C103.727 43.1602 104.801 42.716 105.571 41.8042C106.341 40.8923 106.714 39.2791 106.714 36.9411C106.714 34.9771 106.318 33.5275 105.524 32.6391C104.731 31.7272 103.657 31.283 102.304 31.283C101.114 31.2362 99.9471 31.7506 99.177 32.6624C98.3836 33.5743 97.9869 35.094 97.9869 37.2216Z" fill="black"/>
<path d="M112.502 26.7472H118.942V42.5056H129V47.6493H112.478V26.7472H112.502Z" fill="black"/>
<path d="M105.403 25.5409C111.887 20.6451 113.887 12.3458 109.869 7.004C105.851 1.66219 97.3373 1.30068 90.8529 6.19654C84.3686 11.0924 82.369 19.3917 86.3868 24.7335C90.4046 30.0753 98.9183 30.4368 105.403 25.5409Z" fill="white"/>
<mask id="mask0_27_85" style="mask-type:luminance" maskUnits="userSpaceOnUse" x="84" y="2" width="28" height="27">
<path d="M105.403 25.5409C111.887 20.6451 113.887 12.3458 109.869 7.004C105.851 1.66219 97.3373 1.30068 90.8529 6.19654C84.3686 11.0924 82.369 19.3917 86.3868 24.7335C90.4046 30.0753 98.9183 30.4368 105.403 25.5409Z" fill="white"/>
</mask>
<g mask="url(#mask0_27_85)">
<path d="M69.8497 13.2194L103.358 -12.0803L126.545 18.7475L93.0366 44.0472L69.8497 13.2194Z" fill="white"/>
<mask id="mask1_27_85" style="mask-type:luminance" maskUnits="userSpaceOnUse" x="69" y="-13" width="58" height="58">
<path d="M69.8497 13.2194L103.358 -12.0803L126.545 18.7475L93.0366 44.0472L69.8497 13.2194Z" fill="white"/>
</mask>
<g mask="url(#mask1_27_85)">
<path d="M105.403 25.5409C111.887 20.6451 113.887 12.3458 109.869 7.004C105.851 1.66219 97.3373 1.30068 90.8529 6.19654C84.3686 11.0924 82.369 19.3917 86.3868 24.7335C90.4046 30.0753 98.9183 30.4368 105.403 25.5409Z" fill="white"/>
<mask id="mask2_27_85" style="mask-type:luminance" maskUnits="userSpaceOnUse" x="84" y="2" width="28" height="27">
<path d="M105.403 25.5409C111.887 20.6451 113.887 12.3458 109.869 7.004C105.851 1.66219 97.3373 1.30068 90.8529 6.19654C84.3686 11.0924 82.369 19.3917 86.3868 24.7335C90.4046 30.0753 98.9183 30.4368 105.403 25.5409Z" fill="white"/>
</mask>
<g mask="url(#mask2_27_85)">
<path d="M79.1807 15.2779L102.644 -2.43711L117.208 16.9262L93.7441 34.6412L79.1807 15.2779Z" fill="white"/>
<mask id="mask3_27_85" style="mask-type:luminance" maskUnits="userSpaceOnUse" x="79" y="-3" width="39" height="38">
<path d="M79.1807 15.2779L102.644 -2.43711L117.208 16.9262L93.7441 34.6412L79.1807 15.2779Z" fill="white"/>
</mask>
<g mask="url(#mask3_27_85)">
<path d="M105.403 25.5409C111.887 20.6451 113.887 12.3458 109.869 7.004C105.851 1.66219 97.3373 1.30068 90.8529 6.19654C84.3686 11.0924 82.369 19.3917 86.3868 24.7335C90.4046 30.0753 98.9183 30.4368 105.403 25.5409Z" fill="white" stroke="black" stroke-width="4" stroke-miterlimit="10"/>
</g>
<mask id="mask4_27_85" style="mask-type:luminance" maskUnits="userSpaceOnUse" x="82" y="-2" width="32" height="36">
<path d="M82.5242 26.912L90.6283 -1.38904L113.884 5.28855L105.78 33.5896L82.5242 26.912Z" fill="white"/>
</mask>
<g mask="url(#mask4_27_85)">
<path d="M79.1807 15.2827L102.649 -2.43716L117.208 16.9213L93.7394 34.6411L79.1807 15.2827Z" stroke="black" stroke-width="4" stroke-miterlimit="10"/>
</g>
<path d="M105.403 25.5409C111.887 20.6451 113.887 12.3458 109.869 7.004C105.851 1.66219 97.3373 1.30068 90.8529 6.19654C84.3686 11.0924 82.369 19.3917 86.3868 24.7335C90.4046 30.0753 98.9183 30.4368 105.403 25.5409Z" stroke="black" stroke-width="4" stroke-miterlimit="10"/>
<path d="M79.1807 15.2779L102.644 -2.43711L117.208 16.9262L93.7441 34.6412L79.1807 15.2779Z" fill="white"/>
<mask id="mask5_27_85" style="mask-type:luminance" maskUnits="userSpaceOnUse" x="79" y="-3" width="39" height="38">
<path d="M79.1807 15.2779L102.644 -2.43711L117.208 16.9262L93.7441 34.6412L79.1807 15.2779Z" fill="white"/>
</mask>
<g mask="url(#mask5_27_85)">
<path d="M105.403 25.5409C111.887 20.6451 113.887 12.3458 109.869 7.004C105.851 1.66219 97.3373 1.30068 90.8529 6.19654C84.3686 11.0924 82.369 19.3917 86.3868 24.7335C90.4046 30.0753 98.9183 30.4368 105.403 25.5409Z" fill="white" stroke="black" stroke-width="4" stroke-miterlimit="10"/>
</g>
<mask id="mask6_27_85" style="mask-type:luminance" maskUnits="userSpaceOnUse" x="82" y="-2" width="32" height="36">
<path d="M82.5242 26.912L90.6283 -1.38904L113.884 5.28855L105.78 33.5896L82.5242 26.912Z" fill="white"/>
</mask>
<g mask="url(#mask6_27_85)">
<path d="M79.1807 15.2827L102.649 -2.43716L117.208 16.9213L93.7394 34.6411L79.1807 15.2827Z" stroke="black" stroke-width="4" stroke-miterlimit="10"/>
</g>
<path d="M69.8497 13.2194L103.358 -12.0803L126.545 18.7475L93.0366 44.0472L69.8497 13.2194Z" stroke="black" stroke-width="4" stroke-miterlimit="10"/>
</g>
<path d="M105.403 25.5409C111.887 20.6451 113.887 12.3458 109.869 7.004C105.851 1.66219 97.3373 1.30068 90.8529 6.19654C84.3686 11.0924 82.369 19.3917 86.3868 24.7335C90.4046 30.0753 98.9183 30.4368 105.403 25.5409Z" stroke="black" stroke-width="4" stroke-miterlimit="10"/>
<path d="M91.5695 14.3322L93.9031 12.6956L96.7734 16.7871C97.2635 17.4418 97.6368 18.1432 97.9169 18.9148C98.0802 19.4993 98.0335 20.1305 97.8002 20.6917C97.4968 21.3931 97.0068 21.9776 96.3534 22.3984C95.5833 22.9362 94.9299 23.2401 94.3698 23.3337C93.8331 23.4272 93.273 23.3337 92.7597 23.0999C92.1996 22.8193 91.7096 22.4218 91.3362 21.9075L93.3431 20.037C93.5064 20.2942 93.7164 20.528 93.9498 20.7151C94.1131 20.832 94.2998 20.9021 94.5098 20.9021C94.6732 20.9021 94.8365 20.832 94.9532 20.7384C95.1866 20.5981 95.3499 20.3176 95.3266 20.037C95.2566 19.6396 95.0932 19.2421 94.8365 18.9381L91.5695 14.3322ZM98.5703 16.9274L100.694 15.244C100.927 15.5246 101.231 15.735 101.557 15.8519C102.024 15.9922 102.514 15.8987 102.911 15.5947C103.191 15.4077 103.424 15.1505 103.517 14.8232C103.657 14.4023 103.424 13.9347 103.004 13.7944C102.934 13.7711 102.864 13.7477 102.794 13.7477C102.514 13.7243 102.024 13.8412 101.301 14.1452C100.11 14.6361 99.177 14.8232 98.4769 14.753C97.8002 14.6829 97.1701 14.3322 96.7967 13.7477C96.5167 13.3502 96.3767 12.8826 96.3534 12.415C96.3534 11.8773 96.4934 11.3395 96.7967 10.8953C97.2401 10.264 97.7768 9.72625 98.4302 9.30541C99.4103 8.62737 100.274 8.30005 101.021 8.30005C101.767 8.30005 102.467 8.65075 103.121 9.37555L101.021 11.0356C100.6 10.4978 99.8071 10.3809 99.2703 10.8018L99.2003 10.8719C98.967 11.0122 98.8036 11.2226 98.7103 11.4798C98.6403 11.6668 98.6869 11.8773 98.8036 12.0409C98.897 12.1578 99.037 12.2513 99.2003 12.2513C99.387 12.2747 99.7137 12.1812 100.18 11.9708C101.347 11.4798 102.234 11.1992 102.841 11.1057C103.354 11.0122 103.891 11.0589 104.381 11.2694C104.824 11.4564 105.198 11.7837 105.454 12.1812C105.781 12.6488 105.968 13.2099 105.991 13.7944C106.014 14.4023 105.851 14.9868 105.524 15.5012C105.104 16.1325 104.568 16.6702 103.937 17.0911C102.654 17.9795 101.604 18.3536 100.764 18.2133C99.8537 18.0731 99.107 17.6055 98.5703 16.9274Z" fill="black"/>
</g>
</g>
</g>
<defs>
<clipPath id="clip0_27_85">
<rect width="129" height="48" fill="white"/>
</clipPath>
</defs>
</svg>
