<svg width="16" height="16" viewBox="0 0 16 16" fill="none" xmlns="http://www.w3.org/2000/svg">
<g clip-path="url(#clip0_20_26)">
<path d="M15.9693 3.69467L10.3573 9.30667C9.73157 9.93084 8.88382 10.2814 7.99999 10.2814C7.11616 10.2814 6.26841 9.93084 5.64266 9.30667L0.030659 3.69467C0.0213257 3.8 -7.62939e-06 3.89534 -7.62939e-06 4.00001V12C0.00105094 12.8837 0.35258 13.731 0.977472 14.3559C1.60236 14.9808 2.4496 15.3323 3.33333 15.3333H12.6667C13.5504 15.3323 14.3976 14.9808 15.0225 14.3559C15.6474 13.731 15.9989 12.8837 16 12V4.00001C16 3.89534 15.9787 3.8 15.9693 3.69467Z" fill="black"/>
<path d="M9.41467 8.36399L15.504 2.27399C15.209 1.78487 14.793 1.38001 14.296 1.09848C13.799 0.816939 13.2379 0.668217 12.6667 0.666656H3.33334C2.76215 0.668217 2.201 0.816939 1.70402 1.09848C1.20704 1.38001 0.790988 1.78487 0.496002 2.27399L6.58534 8.36399C6.96105 8.7382 7.46972 8.9483 8 8.9483C8.53028 8.9483 9.03895 8.7382 9.41467 8.36399Z" fill="black"/>
</g>
<defs>
<clipPath id="clip0_20_26">
<rect width="16" height="16" fill="white"/>
</clipPath>
</defs>
</svg>
